<svg width="28" height="28" viewBox="0 0 28 28" fill="none" xmlns="http://www.w3.org/2000/svg">
<path d="M26.3259 19.3973H5.20982V0.245536C5.20982 0.110491 5.09933 0 4.96429 0H3.24554C3.11049 0 3 0.110491 3 0.245536V21.3616C3 21.4967 3.11049 21.6071 3.24554 21.6071H26.3259C26.4609 21.6071 26.5714 21.4967 26.5714 21.3616V19.6429C26.5714 19.5078 26.4609 19.3973 26.3259 19.3973ZM7.91071 16.942H9.62946C9.76451 16.942 9.875 16.8315 9.875 16.6964V12.2768C9.875 12.1417 9.76451 12.0313 9.62946 12.0313H7.91071C7.77567 12.0313 7.66518 12.1417 7.66518 12.2768V16.6964C7.66518 16.8315 7.77567 16.942 7.91071 16.942ZM12.5759 16.942H14.2946C14.4297 16.942 14.5402 16.8315 14.5402 16.6964V6.875C14.5402 6.73996 14.4297 6.62947 14.2946 6.62947H12.5759C12.4408 6.62947 12.3304 6.73996 12.3304 6.875V16.6964C12.3304 16.8315 12.4408 16.942 12.5759 16.942ZM17.2411 16.942H18.9598C19.0949 16.942 19.2054 16.8315 19.2054 16.6964V9.26897C19.2054 9.13393 19.0949 9.02344 18.9598 9.02344H17.2411C17.106 9.02344 16.9955 9.13393 16.9955 9.26897V16.6964C16.9955 16.8315 17.106 16.942 17.2411 16.942ZM21.9063 16.942H23.625C23.76 16.942 23.8705 16.8315 23.8705 16.6964V4.41964C23.8705 4.2846 23.76 4.17411 23.625 4.17411H21.9063C21.7712 4.17411 21.6607 4.2846 21.6607 4.41964V16.6964C21.6607 16.8315 21.7712 16.942 21.9063 16.942Z" fill="#FFC542"/>
</svg>
